<svg width="15" height="15" viewBox="0 0 15 15" fill="none" xmlns="http://www.w3.org/2000/svg">
<path fill-rule="evenodd" clip-rule="evenodd" d="M13.7501 7.5C13.7501 10.95 10.9438 13.75 7.50006 13.75L7.32521 13.7476C3.95595 13.6549 1.25006 10.8915 1.25006 7.5C1.25006 4.05625 4.05006 1.25 7.50006 1.25C10.9438 1.25 13.7501 4.05625 13.7501 7.5ZM6.26256 5C6.08131 5.1875 6.08131 5.48125 6.26881 5.6625L8.11256 7.5L6.26881 9.3375C6.08131 9.51875 6.08131 9.81875 6.26256 10C6.45006 10.1875 6.74381 10.1875 6.92506 10L9.10631 7.83125C9.19381 7.74375 9.24381 7.625 9.24381 7.5C9.24381 7.375 9.19381 7.25625 9.10631 7.16875L6.92506 5C6.83756 4.90625 6.71881 4.8625 6.60006 4.8625C6.47506 4.8625 6.35631 4.90625 6.26256 5Z" fill="white"/>
</svg>
