<svg width="290" height="145" viewBox="0 0 290 145" fill="none" xmlns="http://www.w3.org/2000/svg">
<path fill-rule="evenodd" clip-rule="evenodd" d="M0 144.5V0H143.5L150.704 19.5H38.5C32.9771 19.5 28.5 23.9772 28.5 29.5V47.5H161.049L171.803 76.6074C175 85.2599 187.21 85.3389 190.518 76.7285L220 0H246L290 144.5H255.5L234.5 74C229.14 67.0463 225.961 67.1501 220 74L191 144.5H160.5C160.5 144.5 169.381 84.7102 143.5 78.5C143.069 78.3967 142.647 78.2939 142.231 78.1929C136.045 76.6894 131.394 75.559 125.5 78.5C117.793 82.346 117.849 95.8045 118.636 103.832C119.037 107.922 120.711 111.741 123.058 115.115L143.5 144.5L131.405 142.736C123.764 141.622 116.847 137.604 112.093 131.519L104.527 121.835C98.2734 113.83 96.4952 103.205 99.8017 93.5999L105 78.5H28.5V144.5H0Z" fill="url(#paint0_linear_4_103)"/>
<defs>
<linearGradient id="paint0_linear_4_103" x1="145" y1="0" x2="145" y2="144.5" gradientUnits="userSpaceOnUse">
<stop stop-color="#4578F9"/>
<stop offset="0.973958"/>
</linearGradient>
</defs>
</svg>
